<svg width="20" height="20" viewBox="0 0 20 20" fill="none" xmlns="http://www.w3.org/2000/svg">
<path d="M1.7181 10.2898C1.64865 10.1027 1.64865 9.89691 1.7181 9.70981C2.39452 8.06969 3.5427 6.66735 5.01708 5.68056C6.49146 4.69378 8.22564 4.16699 9.99977 4.16699C11.7739 4.16699 13.5081 4.69378 14.9825 5.68056C16.4568 6.66735 17.605 8.06969 18.2814 9.70981C18.3509 9.89691 18.3509 10.1027 18.2814 10.2898C17.605 11.9299 16.4568 13.3323 14.9825 14.3191C13.5081 15.3058 11.7739 15.8326 9.99977 15.8326C8.22564 15.8326 6.49146 15.3058 5.01708 14.3191C3.5427 13.3323 2.39452 11.9299 1.7181 10.2898Z" stroke="black" stroke-width="1.66452" stroke-linecap="round" stroke-linejoin="round"/>
<path d="M10 12.5C11.3807 12.5 12.5 11.3807 12.5 10C12.5 8.61929 11.3807 7.5 10 7.5C8.61929 7.5 7.5 8.61929 7.5 10C7.5 11.3807 8.61929 12.5 10 12.5Z" stroke="black" stroke-width="1.66452" stroke-linecap="round" stroke-linejoin="round"/>
</svg>
