<svg width="345" height="4" viewBox="0 0 345 4" fill="none" xmlns="http://www.w3.org/2000/svg">
<path d="M140.251 1.98591C140.251 0.889123 141.141 0 142.237 0H170.242C171.338 0 172.227 0.889123 172.227 1.98591C172.227 3.0827 171.338 3.97182 170.242 3.97182H142.237C141.141 3.97182 140.251 3.0827 140.251 1.98591Z" fill="black"/>
<path d="M180.2 1.98591C180.2 0.889123 181.089 0 182.186 0H186.186C187.283 0 188.172 0.889123 188.172 1.98591C188.172 3.0827 187.283 3.97182 186.186 3.97182H182.186C181.089 3.97182 180.2 3.0827 180.2 1.98591Z" fill="white"/>
<path d="M196.145 1.98591C196.145 0.889123 197.034 0 198.13 0H202.131C203.228 0 204.117 0.889123 204.117 1.98591C204.117 3.0827 203.228 3.97182 202.131 3.97182H198.13C197.034 3.97182 196.145 3.0827 196.145 1.98591Z" fill="white"/>
</svg>
